<mxfile host="Electron" modified="2023-11-01T22:09:22.703Z" agent="Mozilla/5.0 (Windows NT 10.0; Win64; x64) AppleWebKit/537.36 (KHTML, like Gecko) draw.io/22.0.2 Chrome/114.0.5735.289 Electron/25.8.4 Safari/537.36" etag="_2y7qvMYTD67UnZIJtbV" version="22.0.2" type="device">
  <diagram name="Page-1" id="6ugYEjoZdk8zQfkswFeW">
    <mxGraphModel dx="2074" dy="1196" grid="1" gridSize="10" guides="1" tooltips="1" connect="1" arrows="1" fold="1" page="1" pageScale="1" pageWidth="827" pageHeight="1169" math="0" shadow="0">
      <root>
        <mxCell id="0" />
        <mxCell id="1" parent="0" />
        <mxCell id="axoX5nLjKLJ5lcDH4ryV-1" value="" style="rounded=0;whiteSpace=wrap;html=1;" vertex="1" parent="1">
          <mxGeometry x="40" y="120" width="160" height="200" as="geometry" />
        </mxCell>
        <mxCell id="axoX5nLjKLJ5lcDH4ryV-2" value="" style="endArrow=none;html=1;rounded=0;entryX=0;entryY=0.75;entryDx=0;entryDy=0;exitX=1;exitY=0.75;exitDx=0;exitDy=0;" edge="1" parent="1" source="axoX5nLjKLJ5lcDH4ryV-1" target="axoX5nLjKLJ5lcDH4ryV-1">
          <mxGeometry width="50" height="50" relative="1" as="geometry">
            <mxPoint x="-100" y="320" as="sourcePoint" />
            <mxPoint x="-50" y="270" as="targetPoint" />
          </mxGeometry>
        </mxCell>
        <mxCell id="axoX5nLjKLJ5lcDH4ryV-3" value="" style="endArrow=none;html=1;rounded=0;entryX=0;entryY=0.75;entryDx=0;entryDy=0;exitX=1;exitY=0.75;exitDx=0;exitDy=0;" edge="1" parent="1">
          <mxGeometry width="50" height="50" relative="1" as="geometry">
            <mxPoint x="200" y="219.5" as="sourcePoint" />
            <mxPoint x="40" y="219.5" as="targetPoint" />
          </mxGeometry>
        </mxCell>
        <mxCell id="axoX5nLjKLJ5lcDH4ryV-4" value="" style="endArrow=none;html=1;rounded=0;entryX=0.25;entryY=0;entryDx=0;entryDy=0;" edge="1" parent="1" target="axoX5nLjKLJ5lcDH4ryV-1">
          <mxGeometry width="50" height="50" relative="1" as="geometry">
            <mxPoint x="80" y="220" as="sourcePoint" />
            <mxPoint x="-100" y="180" as="targetPoint" />
          </mxGeometry>
        </mxCell>
        <mxCell id="axoX5nLjKLJ5lcDH4ryV-5" value="" style="endArrow=none;html=1;rounded=0;entryX=0.25;entryY=0;entryDx=0;entryDy=0;" edge="1" parent="1">
          <mxGeometry width="50" height="50" relative="1" as="geometry">
            <mxPoint x="119.89999999999998" y="220" as="sourcePoint" />
            <mxPoint x="119.89999999999998" y="120" as="targetPoint" />
          </mxGeometry>
        </mxCell>
        <mxCell id="axoX5nLjKLJ5lcDH4ryV-6" value="" style="endArrow=none;html=1;rounded=0;entryX=0.25;entryY=0;entryDx=0;entryDy=0;" edge="1" parent="1">
          <mxGeometry width="50" height="50" relative="1" as="geometry">
            <mxPoint x="160" y="220" as="sourcePoint" />
            <mxPoint x="160" y="120" as="targetPoint" />
          </mxGeometry>
        </mxCell>
        <mxCell id="axoX5nLjKLJ5lcDH4ryV-7" value="&lt;b style=&quot;font-size: 20px;&quot;&gt;V&lt;br&gt;M&lt;/b&gt;" style="text;html=1;strokeColor=#82b366;fillColor=#d5e8d4;align=center;verticalAlign=middle;whiteSpace=wrap;rounded=0;direction=south;rotation=0;spacing=2;spacingTop=0;horizontal=1;" vertex="1" parent="1">
          <mxGeometry x="40" y="120" width="40" height="100" as="geometry" />
        </mxCell>
        <mxCell id="axoX5nLjKLJ5lcDH4ryV-8" value="&lt;b style=&quot;font-size: 20px;&quot;&gt;V&lt;br&gt;M&lt;/b&gt;" style="text;html=1;strokeColor=#82b366;fillColor=#d5e8d4;align=center;verticalAlign=middle;whiteSpace=wrap;rounded=0;direction=south;rotation=0;spacing=2;spacingTop=0;horizontal=1;" vertex="1" parent="1">
          <mxGeometry x="80" y="120" width="40" height="100" as="geometry" />
        </mxCell>
        <mxCell id="axoX5nLjKLJ5lcDH4ryV-9" value="&lt;b style=&quot;font-size: 20px;&quot;&gt;V&lt;br&gt;M&lt;/b&gt;" style="text;html=1;strokeColor=#82b366;fillColor=#d5e8d4;align=center;verticalAlign=middle;whiteSpace=wrap;rounded=0;direction=south;rotation=0;spacing=2;spacingTop=0;horizontal=1;" vertex="1" parent="1">
          <mxGeometry x="120" y="120" width="40" height="100" as="geometry" />
        </mxCell>
        <mxCell id="axoX5nLjKLJ5lcDH4ryV-10" value="&lt;b style=&quot;font-size: 20px;&quot;&gt;V&lt;br&gt;M&lt;/b&gt;" style="text;html=1;strokeColor=#82b366;fillColor=#d5e8d4;align=center;verticalAlign=middle;whiteSpace=wrap;rounded=0;direction=south;rotation=0;spacing=2;spacingTop=0;horizontal=1;" vertex="1" parent="1">
          <mxGeometry x="160" y="120" width="40" height="100" as="geometry" />
        </mxCell>
        <mxCell id="axoX5nLjKLJ5lcDH4ryV-12" value="&lt;b&gt;&lt;font style=&quot;font-size: 18px;&quot;&gt;OS + Hypervisor&lt;/font&gt;&lt;/b&gt;" style="text;html=1;strokeColor=#6c8ebf;fillColor=#dae8fc;align=center;verticalAlign=middle;whiteSpace=wrap;rounded=0;" vertex="1" parent="1">
          <mxGeometry x="40" y="220" width="160" height="50" as="geometry" />
        </mxCell>
        <mxCell id="axoX5nLjKLJ5lcDH4ryV-13" value="&lt;b&gt;&lt;font style=&quot;font-size: 18px;&quot;&gt;Hardware&lt;/font&gt;&lt;/b&gt;" style="text;html=1;strokeColor=#b85450;fillColor=#f8cecc;align=center;verticalAlign=middle;whiteSpace=wrap;rounded=0;" vertex="1" parent="1">
          <mxGeometry x="40" y="270" width="160" height="50" as="geometry" />
        </mxCell>
        <mxCell id="axoX5nLjKLJ5lcDH4ryV-14" value="" style="rounded=0;whiteSpace=wrap;html=1;" vertex="1" parent="1">
          <mxGeometry x="254" y="120" width="160" height="200" as="geometry" />
        </mxCell>
        <mxCell id="axoX5nLjKLJ5lcDH4ryV-15" value="" style="endArrow=none;html=1;rounded=0;entryX=0;entryY=0.75;entryDx=0;entryDy=0;exitX=1;exitY=0.75;exitDx=0;exitDy=0;" edge="1" parent="1" source="axoX5nLjKLJ5lcDH4ryV-14" target="axoX5nLjKLJ5lcDH4ryV-14">
          <mxGeometry width="50" height="50" relative="1" as="geometry">
            <mxPoint x="114" y="320" as="sourcePoint" />
            <mxPoint x="164" y="270" as="targetPoint" />
          </mxGeometry>
        </mxCell>
        <mxCell id="axoX5nLjKLJ5lcDH4ryV-16" value="" style="endArrow=none;html=1;rounded=0;entryX=0;entryY=0.75;entryDx=0;entryDy=0;exitX=1;exitY=0.75;exitDx=0;exitDy=0;" edge="1" parent="1">
          <mxGeometry width="50" height="50" relative="1" as="geometry">
            <mxPoint x="414" y="219.5" as="sourcePoint" />
            <mxPoint x="254" y="219.5" as="targetPoint" />
          </mxGeometry>
        </mxCell>
        <mxCell id="axoX5nLjKLJ5lcDH4ryV-17" value="" style="endArrow=none;html=1;rounded=0;entryX=0.25;entryY=0;entryDx=0;entryDy=0;" edge="1" parent="1" target="axoX5nLjKLJ5lcDH4ryV-14">
          <mxGeometry width="50" height="50" relative="1" as="geometry">
            <mxPoint x="294" y="220" as="sourcePoint" />
            <mxPoint x="114" y="180" as="targetPoint" />
          </mxGeometry>
        </mxCell>
        <mxCell id="axoX5nLjKLJ5lcDH4ryV-18" value="" style="endArrow=none;html=1;rounded=0;entryX=0.25;entryY=0;entryDx=0;entryDy=0;" edge="1" parent="1">
          <mxGeometry width="50" height="50" relative="1" as="geometry">
            <mxPoint x="333.9" y="220" as="sourcePoint" />
            <mxPoint x="333.9" y="120" as="targetPoint" />
          </mxGeometry>
        </mxCell>
        <mxCell id="axoX5nLjKLJ5lcDH4ryV-19" value="" style="endArrow=none;html=1;rounded=0;entryX=0.25;entryY=0;entryDx=0;entryDy=0;" edge="1" parent="1">
          <mxGeometry width="50" height="50" relative="1" as="geometry">
            <mxPoint x="374" y="220" as="sourcePoint" />
            <mxPoint x="374" y="120" as="targetPoint" />
          </mxGeometry>
        </mxCell>
        <mxCell id="axoX5nLjKLJ5lcDH4ryV-20" value="&lt;b style=&quot;font-size: 17px;&quot;&gt;V&lt;br&gt;M&lt;/b&gt;" style="text;html=1;strokeColor=#82b366;fillColor=#d5e8d4;align=center;verticalAlign=middle;whiteSpace=wrap;rounded=0;direction=south;rotation=0;spacing=2;spacingTop=0;horizontal=1;" vertex="1" parent="1">
          <mxGeometry x="254" y="120" width="40" height="50" as="geometry" />
        </mxCell>
        <mxCell id="axoX5nLjKLJ5lcDH4ryV-21" value="&lt;b style=&quot;font-size: 17px;&quot;&gt;V&lt;br&gt;M&lt;/b&gt;" style="text;html=1;strokeColor=#82b366;fillColor=#d5e8d4;align=center;verticalAlign=middle;whiteSpace=wrap;rounded=0;direction=south;rotation=0;spacing=2;spacingTop=0;horizontal=1;" vertex="1" parent="1">
          <mxGeometry x="294" y="120" width="40" height="50" as="geometry" />
        </mxCell>
        <mxCell id="axoX5nLjKLJ5lcDH4ryV-22" value="&lt;b style=&quot;&quot;&gt;&lt;span style=&quot;&quot;&gt;W&lt;br&gt;&lt;/span&gt;O&lt;br&gt;R&lt;br&gt;D&lt;/b&gt;" style="text;html=1;strokeColor=#d6b656;fillColor=#fff2cc;align=center;verticalAlign=middle;whiteSpace=wrap;rounded=0;direction=south;rotation=0;spacing=2;spacingTop=0;horizontal=1;" vertex="1" parent="1">
          <mxGeometry x="334" y="120" width="40" height="100" as="geometry" />
        </mxCell>
        <mxCell id="axoX5nLjKLJ5lcDH4ryV-23" value="&lt;b style=&quot;&quot;&gt;&lt;span style=&quot;&quot;&gt;C&lt;br&gt;&lt;/span&gt;H&lt;br&gt;R&lt;br&gt;O&lt;br&gt;M&lt;br&gt;E&lt;/b&gt;" style="text;html=1;strokeColor=#d6b656;fillColor=#fff2cc;align=center;verticalAlign=middle;whiteSpace=wrap;rounded=0;direction=south;rotation=0;spacing=2;spacingTop=0;horizontal=1;" vertex="1" parent="1">
          <mxGeometry x="374" y="120" width="40" height="100" as="geometry" />
        </mxCell>
        <mxCell id="axoX5nLjKLJ5lcDH4ryV-24" value="&lt;b&gt;&lt;font style=&quot;font-size: 18px;&quot;&gt;OS&lt;/font&gt;&lt;/b&gt;" style="text;html=1;strokeColor=#6c8ebf;fillColor=#dae8fc;align=center;verticalAlign=middle;whiteSpace=wrap;rounded=0;" vertex="1" parent="1">
          <mxGeometry x="254" y="220" width="160" height="50" as="geometry" />
        </mxCell>
        <mxCell id="axoX5nLjKLJ5lcDH4ryV-25" value="&lt;b&gt;&lt;font style=&quot;font-size: 18px;&quot;&gt;Hardware&lt;/font&gt;&lt;/b&gt;" style="text;html=1;strokeColor=#b85450;fillColor=#f8cecc;align=center;verticalAlign=middle;whiteSpace=wrap;rounded=0;" vertex="1" parent="1">
          <mxGeometry x="254" y="270" width="160" height="50" as="geometry" />
        </mxCell>
        <mxCell id="axoX5nLjKLJ5lcDH4ryV-26" value="&lt;b style=&quot;border-color: var(--border-color);&quot;&gt;&lt;font style=&quot;border-color: var(--border-color); font-size: 14px;&quot;&gt;Hypervisor&lt;/font&gt;&lt;/b&gt;" style="text;html=1;strokeColor=#9673a6;fillColor=#e1d5e7;align=center;verticalAlign=middle;whiteSpace=wrap;rounded=0;" vertex="1" parent="1">
          <mxGeometry x="254" y="170" width="80" height="50" as="geometry" />
        </mxCell>
      </root>
    </mxGraphModel>
  </diagram>
</mxfile>
